<?xml version="1.0" encoding="utf-8"?>
<!-- Generator: Adobe Illustrator 16.0.0, SVG Export Plug-In . SVG Version: 6.00 Build 0)  -->
<!DOCTYPE svg PUBLIC "-//W3C//DTD SVG 1.1//EN" "http://www.w3.org/Graphics/SVG/1.1/DTD/svg11.dtd">
<svg version="1.1" id="Capa_1" xmlns="http://www.w3.org/2000/svg" xmlns:xlink="http://www.w3.org/1999/xlink" x="0px" y="0px"
	 width="218px" height="95px" viewBox="0 0 218 95" enable-background="new 0 0 218 95" xml:space="preserve">
<path fill="#27A436" d="M104.334,93.749c-17.123,0-34.323-2.025-49.495-3.813c-11.133-1.314-20.754-2.448-27.769-2.448
	c-4.784,0-8,0.546-9.56,1.621c-0.576,0.401-1.327,0.44-1.946,0.116c-0.619-0.329-1.003-0.974-1-1.674
	c0.185-29.146,7.598-50.222,22.665-64.417C49.841,11.25,68.067,4.22,92.951,1.65c6.475-0.67,12.896-0.995,19.632-0.995
	c13.713,0,26.272,1.402,37.349,2.646c9.594,1.074,18.657,2.088,27.207,2.086c9.521,0,17.376-1.255,24.717-3.954
	c0.602-0.222,1.28-0.121,1.789,0.273c0.511,0.388,0.787,1.014,0.732,1.651c-3.949,45.968-27.43,76.762-66.115,86.708
	C128.621,92.547,117.521,93.749,104.334,93.749"/>
<path fill="#FFFFFF" d="M182.247,49.777c-0.458-0.141-0.819-0.003-1.16,0.438c-1.479,1.912-2.894,3.872-4.436,5.706
	c-1.541,1.834-3.368,3.354-5.515,4.404c-3.262,1.598-6.22,0.711-7.684-2.347c0.823-0.673,1.691-1.294,2.471-2.018
	c2.353-2.191,4.065-4.653,3.772-8.076c-0.179-2.133-1.337-3.693-3.413-4.101c-1.276-0.256-2.581-0.115-3.801,0.462
	c-2.676,1.267-4.251,3.596-5.059,6.311c-0.241,0.803-0.377,1.632-0.418,2.404c-0.179,3.375,0.35,5.792,1.438,7.549
	c-0.542,0.513-1.031,0.913-1.428,1.075c-1.885,0.77-2.972,0.521-4.055-0.949c-0.732-0.996-1.122-2.145-1.215-3.383
	c-0.23-2.885,0.1-5.794,0.497-8.751c0.182-1.346,0.393-2.704,0.603-4.119c0.502-0.011,0.935,0.014,1.357-0.031
	c1.422-0.146,2.854-0.244,4.267-0.497c1.004-0.177,1.221-0.567,1.333-1.704c-2.181,0.015-4.345,0.029-6.553,0.054
	c0.051-0.386,0.101-0.682,0.137-0.982c0.214-2.083,0.495-4.195,0.629-6.361c0.068-1.101-0.188-2.267-1.155-2.942
	c-1.141-0.798-2.434-0.827-3.604-0.772c-0.449,3.855-0.888,7.466-1.317,11.025c-1.724-0.177-3.234-0.329-4.743-0.484
	c-0.727,1.877-0.123,2.863,1.68,2.83c0.851-0.012,1.702-0.032,2.612-0.05c-0.215,1.859-0.434,3.594-0.612,5.311
	c-0.588,5.726,0.166,7.53,0.457,8.696c0.126,0.474,0.278,0.917,0.44,1.336c-0.447,0.231-0.949,0.473-1.506,0.74
	c-2.263,1.068-2.983,0.242-3.119-2.26c-0.124-2.354-0.02-4.798-0.075-7.238c-0.04-1.661-0.065-3.379-0.355-4.979
	c-0.43-2.39-2.021-3.104-4.093-2.072c-1.541,0.772-2.643,2.253-3.639,3.834c-1.576,2.506-2.7,5.206-3.74,7.885
	c-0.098,0.245-0.209,0.479-0.407,0.932c-0.057-1.408-0.116-2.574-0.132-3.763c-0.021-2.101,0.037-4.252-0.01-6.429
	c-0.036-1.708-1.021-2.653-2.292-2.114c-0.755,0.321-1.468,0.942-2.188,1.45c-0.383,0.271-0.41,0.664-0.361,1.145
	c0.157,1.927,0.483,12.904,0.625,14.295c0.227,2.863,1.477,3.82,3.788,3.004c0.417-0.151,0.814-0.321,0.912-0.985
	c0.653-4.408,2.149-8.7,4.145-12.993c0.548-1.173,1.216-2.325,1.938-3.4c0.646-0.96,1.119-0.823,1.271,0.252
	c0.056,0.403,0.072,0.827,0.051,1.248c-0.152,2.98-0.354,5.897-0.404,8.745c-0.04,2.008,0.108,3.962,0.837,5.648
	c0.534,1.24,1.412,1.861,2.708,1.698c1.706-0.218,3.255-1.134,4.736-2.347c0.578-0.469,1.126-0.971,1.657-1.496
	c1.585,3.229,4.451,4.673,8.198,3.504c0.964-0.304,1.975-1.3,2.949-2.495c3.344,3.719,9.238,3.091,13.047,0.908
	c3.091-1.766,5.488-4.302,7.643-7.175c1.067-1.427,2.114-2.878,2.657-4.574C182.756,50.337,182.753,49.933,182.247,49.777
	 M162.951,48.431c0.138-0.332,0.33-0.646,0.527-0.949c0.643-0.953,1.483-1.372,2.283-1.163c0.787,0.209,1.305,1.09,1.328,2.19
	c0.046,2.143-0.881,3.915-2.189,5.525c-0.599,0.736-1.37,1.479-2.135,2.313c-0.06-0.141-0.042-0.379-0.132-0.541
	C162.126,53.25,161.93,50.854,162.951,48.431"/>
<path fill="#FFFFFF" d="M122.096,49.854c0.123-0.823,0.087-1.491-0.271-2.188c-1.401-2.74-4.415-4.354-7.104-3.751
	c-3.089,0.679-5.444,2.733-7.197,5.751c-0.543,0.92-2.215,3.871-2.171,8.938c-1.466,1.336-3.062,2.43-4.87,3.064
	c-2.538,0.892-4.274,0.004-5.418-2.824c-0.699-1.721-0.872-3.559-0.816-5.479c0.05-1.899,0.404-3.715,1.299-5.354
	c1.132-2.079,3.578-3.18,5.401-0.455c0.394,0.582,0.751,1.193,1.163,1.852c0.542-0.397,1.086-0.747,1.584-1.177
	c0.439-0.375,0.563-0.91,0.351-1.57c-0.339-1.029-0.977-1.708-1.737-2.238c-2.682-1.888-5.464-1.819-8.133-0.228
	c-3.527,2.098-5.067,5.755-5.047,10.206c0.018,3.094,0.915,5.837,2.985,7.837c2.679,2.582,5.715,2.878,8.892,1.701
	c2.653-0.986,3.722-2.791,4.394-4.593c0.419,3.874,3.764,6.177,6.999,4.811c2.355-0.998,4.092-2.896,5.445-5.37
	c0.15-0.274,0.282-0.56,0.517-1.018c0.025,0.372,0.03,0.498,0.045,0.628c0.226,2.226,1.97,6.311,3.638,6.411
	c0.433,0.029,0.894-0.039,1.339-0.166c-0.673-1.635-1.91-4.028-2.032-8.415C121.291,54.131,121.768,52.005,122.096,49.854
	 M118.193,48.63c-0.807,3.671-2.08,6.949-3.957,9.822c-0.443,0.687-1.023,1.297-1.641,1.763c-1.038,0.794-1.875,0.393-2.228-0.984
	c-0.146-0.575-0.278-0.937-0.258-1.756c0.53-4.119,1.845-7.853,4.635-10.796c0.551-0.576,1.197-0.861,1.936-0.749
	C117.807,46.092,118.489,47.292,118.193,48.63"/>
<path fill="#FFFFFF" d="M62.294,50.76c-0.355-5.484-0.798-11.152-1.339-17.136c-0.171-1.922-0.665-3.886-1.748-5.55
	c-1.112-1.711-2.473-2.632-4.512-1.394c-1.942,1.171-3.585,2.693-5.062,4.386c-3.271,3.751-5.803,7.789-7.993,11.881
	c-0.95,1.776-1.921,3.534-2.748,5.473c-2.222-1.076-4.491-2.151-6.805-3.209c0.042,0.632,0.08,1.274,0.103,1.657
	c0.087,0.422,0.175,0.854,0.26,1.278c0.908,2.531,3.37,2.645,5.337,3.621c-0.054,0.202-1.818,5.506-2.903,10.48
	c-0.411,1.902-0.726,4.581-0.578,6.628c0.072,0.985,0.304,1.924,1.049,2.574c1.331,1.17,2.946,1.256,4.569,1.433
	c-0.054-1.011-0.224-1.931-0.175-2.828c0.09-1.655,0.183-3.321,0.396-4.944c0.542-4.075,1.375-8.011,2.501-11.881
	c0.042-0.145,0.262-0.321,0.401-0.292c3.914,0.906,8.948,0.606,11.242,0.53c1.08-0.036,2.126-0.324,3.213-0.509
	c0.027,0.39,0.065,0.764,0.083,1.145c0.076,1.385,0.086,2.762,0.209,4.13c0.159,1.815,0.521,3.596,1.411,5.213
	c1.551,2.825,4.751,3.222,6.61,0.921c-0.648-1.368-1.347-2.621-1.885-3.946C62.673,57.345,62.511,54.084,62.294,50.76
	 M57.137,34.131c0.163,4.202,0.266,8.246,0.363,12.188c0.031,1.327,0.031,2.639,0.043,4c-4.558,0.92-9.096,0.736-13.855-0.459
	c0.094-0.303,0.177-0.574,0.271-0.841c1.675-4.809,3.78-9.498,6.719-14.022c1.148-1.76,2.395-3.48,4.02-4.852
	c0.991-0.838,1.569-0.654,1.935,0.765C56.906,31.965,57.098,33.066,57.137,34.131"/>
<path fill="#FFFFFF" d="M79.215,37.099c0.675-2.534,1.235-5.173,0.933-8.065c-0.269-2.606-2.099-4.234-4.208-3.516
	c-0.879,0.296-1.744,0.859-2.455,1.52c-2.042,1.906-3.224,4.495-4.193,7.09c-1.601,4.281-2.377,8.566-2.438,12.913
	c-0.058,4.112,0.325,8.053,1.682,11.841c0.249,0.697,0.552,1.387,0.912,2.022c2.153,3.822,4.966,4.609,8.534,3.166
	c-1.292-1.365-2.59-3.148-3.117-3.914c-0.997-1.433-1.63-3.13-1.932-4.779c-0.289-1.598,0.143-2.841,0.791-4.188
	C75.8,46.841,77.831,42.299,79.215,37.099 M72.248,48.855c0.007-3.62-0.092-6.02,0.879-11.735c0.366-2.17,0.774-4.17,1.473-6.354
	c0.42-1.311,0.612-1.83,1.09-2.509c0.231-0.325,0.861-0.495,1.179-0.368c0.333,0.126,0.701,0.765,0.749,1.166
	c0.204,1.57,0.054,3.263-0.189,4.787c-0.882,5.457-2.523,9.929-4.661,14.288C72.731,48.2,72.357,48.894,72.248,48.855"/>
<path fill="#CCD400" d="M101.005,35.601c-0.924,1.973-2.584,3.567-4.819,4.372c-2.231,0.801-4.645,0.673-6.818-0.188
	c0.928-1.973,2.59-3.567,4.818-4.368C96.421,34.611,98.836,34.742,101.005,35.601"/>
<path fill="#FFD046" d="M95.843,15.42c1.631,4.296,1.7,9.043-0.185,13.404c-1.877,4.364-5.379,7.578-9.625,9.33
	c-1.628-4.291-1.698-9.042,0.185-13.401C88.101,20.391,91.601,17.182,95.843,15.42"/>
<path fill="#FFFFFF" d="M85.005,49.048c-0.971,6.181-1.038,10.257,2.209,14.643c0.466,0.535,0.715,0.846,0.462,0.899
	c-3.26,0.47-5.341-0.697-6.653-4.13c-0.222-0.574-0.382-1.177-0.498-1.78c-0.643-3.26-0.422-6.454,0.2-9.703
	c0.023-0.105,0.049-0.212,0.069-0.314c0.698-2.217,1.07-3.163,1.879-3.997c0,0,2.208-1.556,3.816-0.668
	C87.48,44.546,85.635,45.066,85.005,49.048"/>
<g>
</g>
<g>
</g>
<g>
</g>
<g>
</g>
<g>
</g>
<g>
</g>
<g>
</g>
<g>
</g>
<g>
</g>
<g>
</g>
<g>
</g>
<g>
</g>
<g>
</g>
<g>
</g>
<g>
</g>
</svg>
